<?xml version="1.0" encoding="UTF-8"?>
<svg xmlns="http://www.w3.org/2000/svg" viewBox="0 0 1152 648" width="1152" height="648">
<path d="M0 0 C1.3463855 -0.00700928 1.3463855 -0.00700928 2.7199707 -0.01416016 C3.55874756 -0.01206543 4.39752441 -0.0099707 5.26171875 -0.0078125 C6.01799561 -0.00668457 6.77427246 -0.00555664 7.5534668 -0.00439453 C9.3125 0.125 9.3125 0.125 10.3125 1.125 C11.99861235 1.32966824 13.69226676 1.47281211 15.38671875 1.58984375 C16.44125244 1.6667041 17.49578613 1.74356445 18.58227539 1.82275391 C19.71012451 1.90187012 20.83797363 1.98098633 22 2.0625 C31.17760895 2.74473857 40.23179058 3.5980113 49.3125 5.125 C49.6425 4.135 49.9725 3.145 50.3125 2.125 C54.36522458 2.0999117 58.41791786 2.08196033 62.47070312 2.07006836 C63.84375803 2.06510049 65.21680782 2.0583239 66.58984375 2.04956055 C74.28683417 2.00173568 81.87815665 2.13810227 89.54248047 2.86450195 C100.65854204 3.90987809 111.80888511 4.5046062 122.9296875 3.38671875 C127.31165322 3.04769831 131.66896593 3.0063699 136.0625 3 C136.84318848 2.99556885 137.62387695 2.9911377 138.42822266 2.98657227 C143.12749637 2.99801449 147.68244404 3.32247708 152.33935547 3.95947266 C155.09014166 4.19023646 157.615155 3.63878 160.3125 3.125 C161.3025 3.455 162.2925 3.785 163.3125 4.125 C165.31501746 3.80714009 167.31465393 3.47100893 169.3125 3.125 C177.41678889 2.83403292 185.48459964 2.95843619 193.546875 3.8515625 C195.57310755 4.05189623 197.60653518 4.18271518 199.640625 4.2734375 C205.7744672 4.55716148 211.10661687 5.20667367 216.9375 7.1875 C230.20463744 11.55168995 247.39451161 9.3131813 260.98754883 6.58886719 C263.46921049 6.0937336 265.54152374 6.16397114 268.0625 6.3125 C274.17343419 6.41267925 279.70083423 5.03049857 285.56152344 3.4597168 C291.02193647 2.02814549 291.02193647 2.02814549 294.3125 3.125 C293.9825 4.445 293.6525 5.765 293.3125 7.125 C296.6125 6.465 299.9125 5.805 303.3125 5.125 C303.3125 6.115 303.3125 7.105 303.3125 8.125 C304.36050781 7.81304687 305.40851562 7.50109375 306.48828125 7.1796875 C307.86699113 6.78577039 309.24590846 6.39257886 310.625 6 C311.31529297 5.79246094 312.00558594 5.58492187 312.71679688 5.37109375 C314.55685469 4.85552199 316.4352189 4.48199116 318.3125 4.125 C319.3025 4.785 320.2925 5.445 321.3125 6.125 C320.6525 6.125 319.9925 6.125 319.3125 6.125 C319.3125 7.115 319.3125 8.105 319.3125 9.125 C320.3025 9.455 321.2925 9.785 322.3125 10.125 C321.6525 10.455 320.9925 10.785 320.3125 11.125 C329.52782297 13.50891219 338.39999122 13.22600638 347.8515625 12.95898438 C349.01171875 12.94029297 350.171875 12.92160156 351.3671875 12.90234375 C352.93702393 12.85968384 352.93702393 12.85968384 354.53857422 12.81616211 C357.3125 13.125 357.3125 13.125 359.18408203 14.57641602 C364.7552802 18.62988126 374.35399592 17.30539607 380.9765625 17.37109375 C383.25651407 17.40404521 385.53646189 17.43725663 387.81640625 17.47070312 C391.3705784 17.51791271 394.92473683 17.56235834 398.47900391 17.60180664 C422.50081121 17.88089679 422.50081121 17.88089679 432.56689453 19.65234375 C444.50973761 21.70830535 454.1142203 19.00319625 465.55224609 15.69677734 C473.40083037 13.48103983 480.51782493 12.3948233 488.64453125 12.234375 C493.96717925 12.07565919 499.09882721 11.15969807 504.3125 10.125 C503.9825 11.775 503.6525 13.425 503.3125 15.125 C506.6125 14.465 509.9125 13.805 513.3125 13.125 C513.6425 14.115 513.9725 15.105 514.3125 16.125 C514.81265625 15.80789062 515.3128125 15.49078125 515.828125 15.1640625 C519.18491148 13.7601235 522.47536294 13.66274346 526.0625 13.5 C527.10857422 13.44199219 527.10857422 13.44199219 528.17578125 13.3828125 C529.88760818 13.28901376 531.60001682 13.20593826 533.3125 13.125 C531.9925 13.455 530.6725 13.785 529.3125 14.125 C529.3125 15.115 529.3125 16.105 529.3125 17.125 C531.7875 16.63 531.7875 16.63 534.3125 16.125 C534.3125 16.785 534.3125 17.445 534.3125 18.125 C533.52875 18.228125 532.745 18.33125 531.9375 18.4375 C528.98204819 18.90095022 528.98204819 18.90095022 527.3125 22.125 C531.6025 22.125 535.8925 22.125 540.3125 22.125 C538.8275 23.115 538.8275 23.115 537.3125 24.125 C536.09965124 27.17929073 536.09965124 27.17929073 535.3125 30.125 C536.01375 30.17398438 536.715 30.22296875 537.4375 30.2734375 C542.43510101 30.66727019 547.07788245 31.22856274 551.921875 32.58203125 C557.62246997 33.87677423 563.51295531 34.41515989 569.3125 35.125 C569.3125 35.785 569.3125 36.445 569.3125 37.125 C569.9725 37.125 570.6325 37.125 571.3125 37.125 C572.77661505 40.16391612 574.23273589 43.20659779 575.6875 46.25 C576.30625 47.53390625 576.30625 47.53390625 576.9375 48.84375 C579.02396733 53.21860085 580.84091562 57.49799913 582.3125 62.125 C583.30129205 63.79834039 584.29898336 65.46651823 585.3125 67.125 C585.3125 67.785 585.3125 68.445 585.3125 69.125 C586.61445312 69.10179687 587.91640625 69.07859375 589.2578125 69.0546875 C590.98436924 69.03592058 592.71093221 69.01772137 594.4375 69 C595.2934375 68.98324219 596.149375 68.96648437 597.03125 68.94921875 C600.69169777 68.92106146 603.67936972 68.90730726 607.1640625 70.10546875 C613.13379203 72.03859457 619.60810888 71.52552609 625.83984375 71.60351562 C631.97275908 71.75517397 637.16356609 72.44451065 642.9765625 74.40112305 C646.65900772 75.54226541 650.36319292 75.93354594 654.1875 76.3125 C654.9196875 76.39435547 655.651875 76.47621094 656.40625 76.56054688 C659.73594866 76.92075973 662.95925096 77.125 666.3125 77.125 C666.3125 77.785 666.3125 78.445 666.3125 79.125 C663.0125 79.125 659.7125 79.125 656.3125 79.125 C656.9725 80.775 657.6325 82.425 658.3125 84.125 C659.611875 84.24875 660.91125 84.3725 662.25 84.5 C664.46484375 84.7109375 664.46484375 84.7109375 666.3125 85.125 C666.6425 85.785 666.9725 86.445 667.3125 87.125 C666.9825 87.785 666.6525 88.445 666.3125 89.125 C669.9425 89.125 673.5725 89.125 677.3125 89.125 C677.3125 90.115 677.3125 91.105 677.3125 92.125 C678.4675 91.795 679.6225 91.465 680.8125 91.125 C685.08750587 90.04098066 688.91611453 89.96798623 693.3125 90.125 C691.8275 90.62 691.8275 90.62 690.3125 91.125 C690.3125 92.115 690.3125 93.105 690.3125 94.125 C691.6325 94.455 692.9525 94.785 694.3125 95.125 C692.9925 95.125 691.6725 95.125 690.3125 95.125 C690.3125 96.115 690.3125 97.105 690.3125 98.125 C689.63703125 98.25777344 688.9615625 98.39054687 688.265625 98.52734375 C687.37359375 98.70394531 686.4815625 98.88054687 685.5625 99.0625 C684.68078125 99.23652344 683.7990625 99.41054688 682.890625 99.58984375 C680.68014947 100.04868488 678.49737932 100.55836074 676.3125 101.125 C676.3125 101.785 676.3125 102.445 676.3125 103.125 C677.446875 102.774375 678.58125 102.42375 679.75 102.0625 C684.45132562 100.85983531 688.5775555 101.31392154 693.3125 102.125 C692.6525 102.785 691.9925 103.445 691.3125 104.125 C689.9925 104.125 688.6725 104.125 687.3125 104.125 C687.3125 104.785 687.3125 105.445 687.3125 106.125 C689.2925 106.125 691.2725 106.125 693.3125 106.125 C693.3125 108.105 693.3125 110.085 693.3125 112.125 C693.9725 112.125 694.6325 112.125 695.3125 112.125 C695.3125 112.785 695.3125 113.445 695.3125 114.125 C696.3025 114.125 697.2925 114.125 698.3125 114.125 C698.3125 115.115 698.3125 116.105 698.3125 117.125 C700.6225 116.795 702.9325 116.465 705.3125 116.125 C705.3125 117.115 705.3125 118.105 705.3125 119.125 C703.8275 120.115 703.8275 120.115 702.3125 121.125 C702.3125 121.785 702.3125 122.445 702.3125 123.125 C703.6325 123.125 704.9525 123.125 706.3125 123.125 C706.6425 124.445 706.9725 125.765 707.3125 127.125 C699.8875 129.105 699.8875 129.105 692.3125 131.125 C696.2725 131.125 700.2325 131.125 704.3125 131.125 C704.3125 131.785 704.3125 132.445 704.3125 133.125 C703.6525 133.125 702.9925 133.125 702.3125 133.125 C702.3125 133.785 702.3125 134.445 702.3125 135.125 C705.2825 135.125 708.2525 135.125 711.3125 135.125 C708.90813974 138.73154039 707.36570393 138.97952932 703.3125 140.125 C703.3125 140.785 703.3125 141.445 703.3125 142.125 C701.0025 142.125 698.6925 142.125 696.3125 142.125 C696.3125 143.775 696.3125 145.425 696.3125 147.125 C697.3025 147.455 698.2925 147.785 699.3125 148.125 C698.6525 148.455 697.9925 148.785 697.3125 149.125 C697.9725 149.455 698.6325 149.785 699.3125 150.125 C699.3125 150.785 699.3125 151.445 699.3125 152.125 C697.52213542 153.1015625 695.73177083 154.078125 693.94140625 155.0546875 C692.14631685 156.03910024 692.14631685 156.03910024 691.3125 158.125 C692.9625 157.795 694.6125 157.465 696.3125 157.125 C696.6425 158.115 696.9725 159.105 697.3125 160.125 C696.6525 160.125 695.9925 160.125 695.3125 160.125 C695.3125 160.785 695.3125 161.445 695.3125 162.125 C699.2725 162.62 699.2725 162.62 703.3125 163.125 C703.3125 163.785 703.3125 164.445 703.3125 165.125 C701.3125 166.125 699.3125 167.125 697.3125 168.125 C696.5184375 168.6096875 695.724375 169.094375 694.90625 169.59375 C689.58645181 171.86044662 684.13540444 172.48611092 678.4375 173.3125 C676.68953125 173.57836914 676.68953125 173.57836914 674.90625 173.84960938 C672.04290072 174.28380578 669.17848507 174.70862104 666.3125 175.125 C666.9725 175.785 667.6325 176.445 668.3125 177.125 C667.60641602 177.27122803 666.90033203 177.41745605 666.17285156 177.56811523 C662.96922615 178.2320695 659.76586098 178.89727115 656.5625 179.5625 C655.45132813 179.79259766 654.34015625 180.02269531 653.1953125 180.25976562 C652.12539062 180.48212891 651.05546875 180.70449219 649.953125 180.93359375 C648.96860352 181.13782959 647.98408203 181.34206543 646.96972656 181.55249023 C644.73669154 182.03360629 642.52388926 182.55380091 640.3125 183.125 C641.9625 183.455 643.6125 183.785 645.3125 184.125 C645.3125 185.115 645.3125 186.105 645.3125 187.125 C643.9925 187.125 642.6725 187.125 641.3125 187.125 C641.3125 188.115 641.3125 189.105 641.3125 190.125 C642.6325 190.455 643.9525 190.785 645.3125 191.125 C645.6425 192.445 645.9725 193.765 646.3125 195.125 C639.3825 196.115 639.3825 196.115 632.3125 197.125 C635.2825 197.785 638.2525 198.445 641.3125 199.125 C641.3125 198.465 641.3125 197.805 641.3125 197.125 C642.9625 197.125 644.6125 197.125 646.3125 197.125 C644.9925 197.455 643.6725 197.785 642.3125 198.125 C641.9825 199.445 641.6525 200.765 641.3125 202.125 C643.6225 202.785 645.9325 203.445 648.3125 204.125 C647.9825 204.785 647.6525 205.445 647.3125 206.125 C639.14987011 208.62260303 630.3293213 208.54549011 621.875 208.75 C620.52725495 208.78806842 619.1795174 208.82640297 617.83178711 208.86499023 C604.32677443 209.22901886 590.82147194 209.22814615 577.3125 209.125 C576.9825 210.115 576.6525 211.105 576.3125 212.125 C569.6075774 213.00433411 563.00323961 213.23485396 556.25 213.25 C555.39237061 213.25451172 554.53474121 213.25902344 553.65112305 213.26367188 C547.43622473 213.24872473 547.43622473 213.24872473 546.3125 212.125 C543.96710013 212.02116719 541.65809102 211.98461187 539.3125 212 C538.60931641 212.00193359 537.90613281 212.00386719 537.18164062 212.00585938 C529.20837236 212.06919513 521.26458948 212.57386509 513.3125 213.125 C513.3125 213.785 513.3125 214.445 513.3125 215.125 C509.46753734 217.04748133 504.73882639 216.54196994 500.5 216.74609375 C496.58532077 217.01984426 492.85042726 217.79121584 489.01611328 218.60131836 C483.09214008 219.74877389 477.0757153 220.34715751 471.08789062 221.06835938 C470.09853516 221.19146484 469.10917969 221.31457031 468.08984375 221.44140625 C467.19515381 221.54912354 466.30046387 221.65684082 465.37866211 221.76782227 C463.32735373 221.91803923 463.32735373 221.91803923 462.3125 223.125 C463.9625 223.455 465.6125 223.785 467.3125 224.125 C455.92509792 230.38412632 441.53423002 228.60082863 429.25390625 226.625 C424.56120518 226.02969203 419.91141005 225.85133249 415.1875 225.6875 C409.67789107 225.49304321 404.72720748 225.189343 399.4375 223.5 C394.02443085 221.92020508 389.27462449 222.17938441 383.73046875 222.5546875 C371.21664371 223.25560109 358.74885273 223.16173655 346.22143555 222.93798828 C342.45952755 222.87431497 338.69776847 222.83337825 334.93554688 222.79296875 C332.51299828 222.753981 330.09047061 222.71366566 327.66796875 222.671875 C326.55850388 222.66234802 325.449039 222.65282104 324.30595398 222.64300537 C318.49419257 222.5155152 313.64670736 221.8904622 308.20133972 219.83166504 C305.8876371 218.96604752 303.635814 218.54027311 301.19140625 218.2109375 C300.31806641 218.08976563 299.44472656 217.96859375 298.54492188 217.84375 C297.22331055 217.67359375 297.22331055 217.67359375 295.875 217.5 C294.99779297 217.37882813 294.12058594 217.25765625 293.21679688 217.1328125 C285.15693727 216.03995018 277.08264605 214.97816315 268.9375 215 C267.47183594 214.99613281 267.47183594 214.99613281 265.9765625 214.9921875 C263.40446441 215.03368839 263.40446441 215.03368839 261.3359375 215.62109375 C258.63514056 216.29368604 256.09269084 216.29512381 253.3125 216.3125 C252.28125 216.32667969 251.25 216.34085938 250.1875 216.35546875 C247.23597158 216.11886525 245.89775511 215.44440515 243.3125 214.125 C232.77347941 212.06052438 222.25711699 212.03408834 211.56469727 212.16357422 C203.02093129 212.22546269 194.58136401 211.74454421 186.0625 211.125 C169.72430684 209.96973923 153.45566077 209.86120743 137.08300781 210.07177734 C133.88946664 210.11164953 130.69671603 210.13209687 127.50292969 210.13525391 C104.75268596 210.16304253 83.56081212 212.36382581 61.3125 217.125 C53.21559815 218.80442106 45.12198267 220.43366206 36.9375 221.625 C35.69504517 221.81098755 35.69504517 221.81098755 34.42749023 222.00073242 C29.79132451 222.6779733 25.15451509 223.26735667 20.49609375 223.76953125 C7.67176694 225.1603327 -4.77916331 227.26808577 -17.39160156 229.9855957 C-36.34783979 234.03496318 -36.34783979 234.03496318 -44.6875 234.125 C-45.3475 233.465 -46.0075 232.805 -46.6875 232.125 C-49.04780696 231.66652311 -51.4273174 231.30356869 -53.8125 231 C-55.73449219 230.74863281 -55.73449219 230.74863281 -57.6953125 230.4921875 C-58.68273437 230.37101563 -59.67015625 230.24984375 -60.6875 230.125 C-60.0275 229.795 -59.3675 229.465 -58.6875 229.125 C-59.0175 227.805 -59.3475 226.485 -59.6875 225.125 C-60.51894531 225.3415625 -61.35039062 225.558125 -62.20703125 225.78125 C-63.83705078 226.19890625 -63.83705078 226.19890625 -65.5 226.625 C-66.57894531 226.9034375 -67.65789062 227.181875 -68.76953125 227.46875 C-71.6875 228.125 -71.6875 228.125 -74.6875 228.125 C-74.6875 227.465 -74.6875 226.805 -74.6875 226.125 C-79.3075 225.795 -83.9275 225.465 -88.6875 225.125 C-87.6975 224.795 -86.7075 224.465 -85.6875 224.125 C-85.6875 223.135 -85.6875 222.145 -85.6875 221.125 C-87.0075 220.795 -88.3275 220.465 -89.6875 220.125 C-88.3675 219.795 -87.0475 219.465 -85.6875 219.125 C-85.6875 218.465 -85.6875 217.805 -85.6875 217.125 C-84.98882812 217.06441406 -84.29015625 217.00382813 -83.5703125 216.94140625 C-82.66023438 216.85761719 -81.75015625 216.77382813 -80.8125 216.6875 C-79.90757812 216.60628906 -79.00265625 216.52507812 -78.0703125 216.44140625 C-75.67639139 216.25510715 -75.67639139 216.25510715 -73.6875 215.125 C-76.45800026 214.9303162 -79.22863002 214.74397208 -82 214.5625 C-82.78568359 214.50642578 -83.57136719 214.45035156 -84.38085938 214.39257812 C-85.13818359 214.34423828 -85.89550781 214.29589844 -86.67578125 214.24609375 C-87.37227783 214.1989624 -88.06877441 214.15183105 -88.78637695 214.10327148 C-90.91389828 214.03081885 -90.91389828 214.03081885 -93.6875 215.125 C-96.18901978 215.34705321 -98.67340484 215.52381644 -101.1796875 215.66015625 C-101.92147247 215.70313339 -102.66325745 215.74611053 -103.42752075 215.79039001 C-105.0026731 215.88058703 -106.57794519 215.96871309 -108.15332031 216.05493164 C-110.5192514 216.18512019 -112.88459707 216.32347251 -115.25 216.46289062 C-124.07554781 216.96767545 -132.84485438 217.257082 -141.6875 217.125 C-141.0275 216.135 -140.3675 215.145 -139.6875 214.125 C-140.27917969 214.13660156 -140.87085938 214.14820313 -141.48046875 214.16015625 C-145.68981785 214.20822386 -149.5797333 214.18506883 -153.6875 213.125 C-152.3675 212.795 -151.0475 212.465 -149.6875 212.125 C-149.6875 211.135 -149.6875 210.145 -149.6875 209.125 C-150.80898438 209.05152344 -150.80898438 209.05152344 -151.953125 208.9765625 C-152.93796875 208.90179688 -153.9228125 208.82703125 -154.9375 208.75 C-155.91203125 208.68039062 -156.8865625 208.61078125 -157.890625 208.5390625 C-160.58383189 208.14034751 -162.35713279 207.48992937 -164.6875 206.125 C-163.3675 206.125 -162.0475 206.125 -160.6875 206.125 C-160.6875 205.135 -160.6875 204.145 -160.6875 203.125 C-162.0075 202.795 -163.3275 202.465 -164.6875 202.125 C-163.0375 202.125 -161.3875 202.125 -159.6875 202.125 C-159.6875 201.465 -159.6875 200.805 -159.6875 200.125 C-156.3875 199.795 -153.0875 199.465 -149.6875 199.125 C-150.79609375 199.13660156 -151.9046875 199.14820313 -153.046875 199.16015625 C-154.51041498 199.16953792 -155.97395678 199.17863771 -157.4375 199.1875 C-158.16710937 199.19587891 -158.89671875 199.20425781 -159.6484375 199.21289062 C-163.19466742 199.22900985 -166.27157055 198.98885391 -169.6875 198.125 C-171.10724374 197.99207682 -172.53113601 197.89971533 -173.95581055 197.83935547 C-174.81076614 197.80198273 -175.66572174 197.76460999 -176.54658508 197.72610474 C-177.48382919 197.69016205 -178.4210733 197.65421936 -179.38671875 197.6171875 C-180.38700607 197.57616913 -181.3872934 197.53515076 -182.41789246 197.4928894 C-190.44672871 197.17819957 -198.4776702 196.95507798 -206.50989151 196.74875641 C-208.59132905 196.69507269 -210.67272779 196.64007209 -212.75411987 196.58465576 C-213.44832472 196.5662199 -214.14252956 196.54778404 -214.85777092 196.52878952 C-216.26842389 196.49131337 -217.67907478 196.45375872 -219.08972359 196.41612625 C-222.67728723 196.32124291 -226.26486831 196.23147008 -229.8527832 196.15087891 C-233.40045884 196.07083114 -236.94756319 195.97732217 -240.49466515 195.87505722 C-242.4584347 195.82196432 -244.42256651 195.78284305 -246.38667297 195.74417114 C-252.84024094 195.5484395 -258.5157734 194.95889919 -264.62844849 192.8212738 C-268.65742536 191.45886444 -272.89526311 191.16722272 -277.09765625 190.65234375 C-277.95230469 190.47832031 -278.80695313 190.30429687 -279.6875 190.125 C-280.0175 189.465 -280.3475 188.805 -280.6875 188.125 C-279.6975 188.125 -278.7075 188.125 -277.6875 188.125 C-278.6775 185.65 -278.6775 185.65 -279.6875 183.125 C-282.3275 182.795 -284.9675 182.465 -287.6875 182.125 C-287.6875 180.805 -287.6875 179.485 -287.6875 178.125 C-291.3175 177.795 -294.9475 177.465 -298.6875 177.125 C-299.1825 174.65 -299.1825 174.65 -299.6875 172.125 C-301.0075 171.795 -302.3275 171.465 -303.6875 171.125 C-303.6875 170.795 -303.6875 170.465 -303.6875 170.125 C-302.0375 170.125 -300.3875 170.125 -298.6875 170.125 C-298.6875 169.465 -298.6875 168.805 -298.6875 168.125 C-296.50209904 167.42254969 -295.11916412 167.00592024 -292.875 167.625 C-289.68651038 168.35379763 -286.87668974 167.67697515 -283.6875 167.125 C-283.6875 166.465 -283.6875 165.805 -283.6875 165.125 C-284.79158203 165.05152344 -284.79158203 165.05152344 -285.91796875 164.9765625 C-287.38169922 164.86441406 -287.38169922 164.86441406 -288.875 164.75 C-289.83792969 164.68039062 -290.80085938 164.61078125 -291.79296875 164.5390625 C-294.70258938 164.12284147 -297.01640774 163.32625904 -299.6875 162.125 C-299.3575 160.475 -299.0275 158.825 -298.6875 157.125 C-308.5875 156.63 -308.5875 156.63 -318.6875 156.125 C-318.3575 155.465 -318.0275 154.805 -317.6875 154.125 C-314.7175 154.125 -311.7475 154.125 -308.6875 154.125 C-309.3475 152.475 -310.0075 150.825 -310.6875 149.125 C-313.3275 148.795 -315.9675 148.465 -318.6875 148.125 C-318.6875 146.805 -318.6875 145.485 -318.6875 144.125 C-322.3175 143.795 -325.9475 143.465 -329.6875 143.125 C-329.6875 141.475 -329.6875 139.825 -329.6875 138.125 C-331.0075 138.125 -332.3275 138.125 -333.6875 138.125 C-333.6875 137.465 -333.6875 136.805 -333.6875 136.125 C-328.99684015 133.61214651 -325.25725442 132.99916959 -319.9375 133.0625 C-318.95265625 133.07152344 -317.9678125 133.08054687 -316.953125 133.08984375 C-315.83164062 133.10724609 -315.83164062 133.10724609 -314.6875 133.125 C-314.6875 132.465 -314.6875 131.805 -314.6875 131.125 C-315.80898438 131.05152344 -315.80898438 131.05152344 -316.953125 130.9765625 C-317.93796875 130.90179688 -318.9228125 130.82703125 -319.9375 130.75 C-321.39929688 130.64558594 -321.39929688 130.64558594 -322.890625 130.5390625 C-325.58383189 130.14034751 -327.35713279 129.48992937 -329.6875 128.125 C-328.2025 127.63 -328.2025 127.63 -326.6875 127.125 C-329.08259338 124.22567643 -330.99995243 123.62331724 -334.6875 123.125 C-334.6875 122.795 -334.6875 122.465 -334.6875 122.125 C-333.0375 122.125 -331.3875 122.125 -329.6875 122.125 C-330.35618314 119.01167752 -330.35618314 119.01167752 -332.75 117.9375 C-333.7090625 117.5353125 -333.7090625 117.5353125 -334.6875 117.125 C-333.3675 117.125 -332.0475 117.125 -330.6875 117.125 C-331.0175 115.805 -331.3475 114.485 -331.6875 113.125 C-332.6775 113.125 -333.6675 113.125 -334.6875 113.125 C-334.6875 112.465 -334.6875 111.805 -334.6875 111.125 C-333.0375 111.125 -331.3875 111.125 -329.6875 111.125 C-329.6875 110.465 -329.6875 109.805 -329.6875 109.125 C-333.3175 109.125 -336.9475 109.125 -340.6875 109.125 C-340.6875 107.805 -340.6875 106.485 -340.6875 105.125 C-339.3675 105.125 -338.0475 105.125 -336.6875 105.125 C-336.96367533 103.18425139 -336.96367533 103.18425139 -337.6875 101.125 C-338.6775 100.465 -339.6675 99.805 -340.6875 99.125 C-339.2025 98.63 -339.2025 98.63 -337.6875 98.125 C-338.6775 97.795 -339.6675 97.465 -340.6875 97.125 C-340.6875 96.465 -340.6875 95.805 -340.6875 95.125 C-336.01548795 93.91931947 -331.47253708 94.03117574 -326.6875 94.125 C-326.6875 93.135 -326.6875 92.145 -326.6875 91.125 C-329.9875 90.795 -333.2875 90.465 -336.6875 90.125 C-336.6875 89.465 -336.6875 88.805 -336.6875 88.125 C-334.7075 87.63 -334.7075 87.63 -332.6875 87.125 C-339.67283796 85.55598141 -339.67283796 85.55598141 -346.6875 84.125 C-346.6875 83.465 -346.6875 82.805 -346.6875 82.125 C-332.68917594 79.21554441 -318.90789081 78.58973986 -304.64013672 78.20898438 C-294.9074862 77.93215026 -285.58481337 76.89597271 -276.0625 74.84375 C-269.9921373 73.84647613 -263.82360281 73.56329306 -257.6875 73.125 C-257.6875 59.595 -257.6875 46.065 -257.6875 32.125 C-256.6975 31.63 -256.6975 31.63 -255.6875 31.125 C-257.0075 30.465 -258.3275 29.805 -259.6875 29.125 C-259.3575 28.465 -259.0275 27.805 -258.6875 27.125 C-258.15125 27.19460937 -257.615 27.26421875 -257.0625 27.3359375 C-247.0322526 28.02881643 -237.98554537 23.57991326 -229.0625 19.4453125 C-225.71833421 18.13706246 -223.43400403 17.74779084 -219.875 17.8125 C-218.94042969 17.81636719 -218.00585938 17.82023437 -217.04296875 17.82421875 C-214.6875 18.125 -214.6875 18.125 -212.6875 20.125 C-210.65282566 20.40186065 -210.65282566 20.40186065 -208.3359375 20.3203125 C-207.48515625 20.31386719 -206.634375 20.30742187 -205.7578125 20.30078125 C-204.86835938 20.28402344 -203.97890625 20.26726562 -203.0625 20.25 C-202.1653125 20.24097656 -201.268125 20.23195312 -200.34375 20.22265625 C-198.12473414 20.1990497 -195.90624923 20.1661231 -193.6875 20.125 C-193.6875 19.465 -193.6875 18.805 -193.6875 18.125 C-194.80125 18.3725 -194.80125 18.3725 -195.9375 18.625 C-201.19159401 19.32554587 -206.39501749 19.20207499 -211.6875 19.125 C-211.6875 18.795 -211.6875 18.465 -211.6875 18.125 C-202.03146423 15.61285288 -193.1565454 14.66955022 -183.23413086 14.78881836 C-181.09516844 14.81283495 -178.95742632 14.80929518 -176.81835938 14.80273438 C-165.47319315 14.84855299 -165.47319315 14.84855299 -160.6875 17.125 C-160.6875 17.455 -160.6875 17.785 -160.6875 18.125 C-169.9275 18.125 -179.1675 18.125 -188.6875 18.125 C-188.6875 18.785 -188.6875 19.445 -188.6875 20.125 C-187.62015625 20.09470703 -186.5528125 20.06441406 -185.453125 20.03320312 C-181.41249593 19.9191272 -177.37178889 19.80803759 -173.33105469 19.69775391 C-171.59730887 19.65003907 -169.8635838 19.6015629 -168.12988281 19.55224609 C-156.97713805 19.23562704 -145.84501251 19.07334485 -134.6875 19.125 C-140.6275 18.795 -146.5675 18.465 -152.6875 18.125 C-152.6875 17.135 -152.6875 16.145 -152.6875 15.125 C-152.03541061 15.12722061 -151.38332123 15.12944122 -150.71147156 15.13172913 C-143.88113965 15.15397414 -137.05081815 15.16898625 -130.22045898 15.17993164 C-127.67650941 15.18493846 -125.13256269 15.19174587 -122.58862305 15.20043945 C-118.91714777 15.21266572 -115.24571078 15.21826498 -111.57421875 15.22265625 C-109.88760384 15.23039818 -109.88760384 15.23039818 -108.16691589 15.23829651 C-95.48272211 15.3615741 -95.48272211 15.3615741 -83.1875 12.6875 C-77.32905654 10.7315205 -71.32218544 10.34662003 -65.19921875 9.85961914 C-64.00425781 9.75701782 -64.00425781 9.75701782 -62.78515625 9.65234375 C-62.06851807 9.59812256 -61.35187988 9.54390137 -60.61352539 9.48803711 C-58.36876847 9.19488812 -58.36876847 9.19488812 -55.6875 7.125 C-50.07021259 5.69838732 -44.244799 5.15814119 -38.484375 4.625 C-37.58066162 4.54121094 -36.67694824 4.45742187 -35.74584961 4.37109375 C-33.92458024 4.20786449 -32.10243471 4.05411627 -30.27954102 3.91015625 C-29.02161743 3.79994141 -29.02161743 3.79994141 -27.73828125 3.6875 C-26.98200439 3.62691406 -26.22572754 3.56632813 -25.4465332 3.50390625 C-24.86605225 3.37886719 -24.28557129 3.25382813 -23.6875 3.125 C-23.3575 2.465 -23.0275 1.805 -22.6875 1.125 C-15.34290822 -0.38085441 -7.47428316 0.02795618 0 0 Z M-81.6875 15.125 C-81.6875 15.785 -81.6875 16.445 -81.6875 17.125 C-80.87667969 16.980625 -80.06585938 16.83625 -79.23046875 16.6875 C-71.96794876 15.47003448 -65.04737572 14.8595135 -57.6875 15.125 C-57.3575 14.465 -57.0275 13.805 -56.6875 13.125 C-69.44942854 11.77133079 -69.44942854 11.77133079 -81.6875 15.125 Z M-329.6875 82.125 C-329.6875 83.115 -329.6875 84.105 -329.6875 85.125 C-327.91630197 84.98366501 -326.14554713 84.83676792 -324.375 84.6875 C-322.89580078 84.56568359 -322.89580078 84.56568359 -321.38671875 84.44140625 C-318.59374401 84.20687441 -318.59374401 84.20687441 -315.6875 83.125 C-315.6875 82.465 -315.6875 81.805 -315.6875 81.125 C-320.47228822 81.02735126 -324.96435687 81.35387459 -329.6875 82.125 Z M-312.6875 83.125 C-313.3475 83.785 -314.0075 84.445 -314.6875 85.125 C-314.3575 85.455 -314.0275 85.785 -313.6875 86.125 C-311.99608344 86.03536938 -310.30790398 85.87922324 -308.625 85.6875 C-307.70589844 85.58566406 -306.78679687 85.48382813 -305.83984375 85.37890625 C-304.77443359 85.25322266 -304.77443359 85.25322266 -303.6875 85.125 C-303.6875 84.795 -303.6875 84.465 -303.6875 84.125 C-305.14385371 83.90325067 -306.60272956 83.69801302 -308.0625 83.5 C-309.28066406 83.32597656 -309.28066406 83.32597656 -310.5234375 83.1484375 C-311.23757813 83.14070313 -311.95171875 83.13296875 -312.6875 83.125 Z M-322.6875 96.125 C-323.0175 96.785 -323.3475 97.445 -323.6875 98.125 C-323.0275 98.125 -322.3675 98.125 -321.6875 98.125 C-322.0175 97.465 -322.3475 96.805 -322.6875 96.125 Z M695.3125 137.125 C694.6525 137.785 693.9925 138.445 693.3125 139.125 C694.6325 138.795 695.9525 138.465 697.3125 138.125 C696.6525 137.795 695.9925 137.465 695.3125 137.125 Z M684.3125 152.125 C683.9825 152.785 683.6525 153.445 683.3125 154.125 C683.9725 154.125 684.6325 154.125 685.3125 154.125 C684.9825 153.465 684.6525 152.805 684.3125 152.125 Z M685.625 166 C683.88669922 166.52207031 683.88669922 166.52207031 682.11328125 167.0546875 C679.18785747 167.81107129 679.18785747 167.81107129 678.3125 170.125 C684.87175943 169.73520794 690.25776627 168.70386807 696.3125 166.125 C696.3125 165.465 696.3125 164.805 696.3125 164.125 C692.26749764 164.125 689.46952098 164.82038214 685.625 166 Z M670.3125 165.125 C669.3225 166.61 669.3225 166.61 668.3125 168.125 C669.29517859 169.33061184 669.29517859 169.33061184 671.16015625 169.22265625 C673.2109375 169.19010417 675.26171875 169.15755208 677.3125 169.125 C676.6525 167.805 675.9925 166.485 675.3125 165.125 C672.89630177 164.87469023 672.89630177 164.87469023 670.3125 165.125 Z M635.3125 178.125 C635.3125 178.785 635.3125 179.445 635.3125 180.125 C636.93713842 180.17895478 638.56228541 180.21777195 640.1875 180.25 C641.09242188 180.27320313 641.99734375 180.29640625 642.9296875 180.3203125 C645.50056994 180.36824836 645.50056994 180.36824836 647.3125 178.125 C643.3525 178.125 639.3925 178.125 635.3125 178.125 Z M607.3125 204.125 C609.99789415 204.65966228 612.68482628 205.17794683 615.375 205.6875 C616.50325195 205.91469727 616.50325195 205.91469727 617.65429688 206.14648438 C622.49504432 207.04757589 626.4168757 207.10412486 631.3125 206.125 C632.281875 205.939375 633.25125 205.75375 634.25 205.5625 C634.930625 205.418125 635.61125 205.27375 636.3125 205.125 C636.3125 204.465 636.3125 203.805 636.3125 203.125 C635.09691406 203.13660156 633.88132812 203.14820313 632.62890625 203.16015625 C631.04427236 203.16953278 629.45963682 203.17863313 627.875 203.1875 C627.07255859 203.19587891 626.27011719 203.20425781 625.44335938 203.21289062 C623.39954779 203.2215143 621.35566098 203.1772815 619.3125 203.125 C618.9825 202.795 618.6525 202.465 618.3125 202.125 C612.43603969 201.66168563 612.43603969 201.66168563 607.3125 204.125 Z M428.3125 222.125 C434.92945684 226.53630456 442.63403612 226.90474398 450.3125 225.625 C450.9725 225.46 451.6325 225.295 452.3125 225.125 C452.3125 224.465 452.3125 223.805 452.3125 223.125 C451.09626953 223.14240234 451.09626953 223.14240234 449.85546875 223.16015625 C442.60683826 223.21922542 435.51617799 222.93342879 428.3125 222.125 Z " fill="#FEFEFE" transform="translate(398.6875,196.875)"/>
<path d="M0 0 C1.36125 0.12375 1.36125 0.12375 2.75 0.25 C-0.53463659 2.43975773 -3.45696275 3.24806563 -7.25 4.25 C-4.83923194 1.28290085 -3.90322061 0.30024774 0 0 Z " fill="#FFFFFF" transform="translate(39.25,290.75)"/>
<path d="M0 0 C1.32 0 2.64 0 4 0 C4 0.99 4 1.98 4 3 C2.35 3 0.7 3 -1 3 C-0.67 2.01 -0.34 1.02 0 0 Z " fill="#FFFFFF" transform="translate(119,263)"/>
<path d="M0 0 C1.98 0 3.96 0 6 0 C5.34 0.66 4.68 1.32 4 2 C2.68 2 1.36 2 0 2 C0 1.34 0 0.68 0 0 Z " fill="#FFFFFF" transform="translate(111,385)"/>
<path d="M0 0 C1.65 0 3.3 0 5 0 C5 0.66 5 1.32 5 2 C3.35 2 1.7 2 0 2 C0 1.34 0 0.68 0 0 Z " fill="#FFFFFF" transform="translate(134,264)"/>
<path d="M0 0 C1.65 0 3.3 0 5 0 C4.67 0.66 4.34 1.32 4 2 C2.68 2 1.36 2 0 2 C0 1.34 0 0.68 0 0 Z " fill="#FFFFFF" transform="translate(1123,356)"/>
<path d="M0 0 C2.97 0 5.94 0 9 0 C9 0.33 9 0.66 9 1 C6.03 1 3.06 1 0 1 C0 0.67 0 0.34 0 0 Z " fill="#FFFFFF" transform="translate(58,289)"/>
<path d="M0 0 C1.32 0 2.64 0 4 0 C4 0.66 4 1.32 4 2 C2.35 2 0.7 2 -1 2 C-0.67 1.34 -0.34 0.68 0 0 Z " fill="#FFFFFF" transform="translate(28,283)"/>
<path d="M0 0 C1.32 0 2.64 0 4 0 C4 0.66 4 1.32 4 2 C2.35 2 0.7 2 -1 2 C-0.67 1.34 -0.34 0.68 0 0 Z " fill="#FFFFFF" transform="translate(111,226)"/>
<path d="M0 0 C1.98 0 3.96 0 6 0 C6 0.33 6 0.66 6 1 C4.02 1 2.04 1 0 1 C0 0.67 0 0.34 0 0 Z " fill="#FFFFFF" transform="translate(1109,344)"/>
<path d="M0 0 C1.65 0 3.3 0 5 0 C3.02 0.99 3.02 0.99 1 2 C0.67 1.34 0.34 0.68 0 0 Z " fill="#FFFFFF" transform="translate(1101,326)"/>
<path d="M0 0 C0.99 0.33 1.98 0.66 3 1 C1.68 1.33 0.36 1.66 -1 2 C-0.67 1.34 -0.34 0.68 0 0 Z " fill="#FFFFFF" transform="translate(55,317)"/>
<path d="M0 0 C0.66 0.33 1.32 0.66 2 1 C0.35 1.33 -1.3 1.66 -3 2 C-2.01 1.34 -1.02 0.68 0 0 Z " fill="#FFFFFF" transform="translate(909,204)"/>
<path d="M0 0 C1.65 0 3.3 0 5 0 C5 0.33 5 0.66 5 1 C3.35 1 1.7 1 0 1 C0 0.67 0 0.34 0 0 Z " fill="#FFFFFF" transform="translate(1107,356)"/>
<path d="M0 0 C1.65 0 3.3 0 5 0 C5 0.33 5 0.66 5 1 C3.35 1 1.7 1 0 1 C0 0.67 0 0.34 0 0 Z " fill="#FFFFFF" transform="translate(1098,343)"/>
<path d="M0 0 C1.65 0 3.3 0 5 0 C5 0.33 5 0.66 5 1 C3.35 1 1.7 1 0 1 C0 0.67 0 0.34 0 0 Z " fill="#FFFFFF" transform="translate(126,227)"/>
<path d="M0 0 C1.65 0 3.3 0 5 0 C5 0.33 5 0.66 5 1 C3.35 1 1.7 1 0 1 C0 0.67 0 0.34 0 0 Z " fill="#FFFFFF" transform="translate(927,206)"/>
<path d="M0 0 C0.33 0.66 0.66 1.32 1 2 C-0.32 1.67 -1.64 1.34 -3 1 C-2.01 0.67 -1.02 0.34 0 0 Z " fill="#FFFFFF" transform="translate(699,196)"/>
<path d="M0 0 C4 1 4 1 4 1 Z " fill="#FFFFFF" transform="translate(327,429)"/>
<path d="M0 0 C4 1 4 1 4 1 Z " fill="#FFFFFF" transform="translate(310,425)"/>
<path d="M0 0 C4 1 4 1 4 1 Z " fill="#FFFFFF" transform="translate(888,419)"/>
<path d="M0 0 C4 1 4 1 4 1 Z " fill="#FFFFFF" transform="translate(250,413)"/>
<path d="M0 0 C4 1 4 1 4 1 Z " fill="#FFFFFF" transform="translate(245,413)"/>
<path d="M0 0 C4 1 4 1 4 1 Z " fill="#FFFFFF" transform="translate(234,407)"/>
<path d="M0 0 C4 1 4 1 4 1 Z " fill="#FFFFFF" transform="translate(1069,395)"/>
<path d="M0 0 C4 1 4 1 4 1 Z " fill="#FFFFFF" transform="translate(1086,370)"/>
<path d="M0 0 C4 1 4 1 4 1 Z " fill="#FFFFFF" transform="translate(1093,367)"/>
<path d="M0 0 C4 1 4 1 4 1 Z " fill="#FFFFFF" transform="translate(41,283)"/>
<path d="M0 0 C4 1 4 1 4 1 Z " fill="#FFFFFF" transform="translate(1071,280)"/>
<path d="M0 0 C4 1 4 1 4 1 Z " fill="#FFFFFF" transform="translate(935,215)"/>
<path d="M0 0 C3 1 3 1 3 1 Z " fill="#FFFFFF" transform="translate(272,415)"/>
<path d="M0 0 C3 1 3 1 3 1 Z " fill="#FFFFFF" transform="translate(1047,400)"/>
<path d="M0 0 C3 1 3 1 3 1 Z " fill="#FFFFFF" transform="translate(1088,283)"/>
<path d="M0 0 C3 1 3 1 3 1 Z " fill="#FFFFFF" transform="translate(717,198)"/>
<path d="M0 0 C2 1 2 1 2 1 Z " fill="#FFFFFF" transform="translate(325,430)"/>
<path d="M0 0 C2 1 2 1 2 1 Z " fill="#FFFFFF" transform="translate(268,417)"/>
<path d="M0 0 C2 1 2 1 2 1 Z " fill="#FFFFFF" transform="translate(270,416)"/>
<path d="M0 0 C2 1 2 1 2 1 Z " fill="#FFFFFF" transform="translate(1095,352)"/>
<path d="M0 0 C2 1 2 1 2 1 Z " fill="#FFFFFF" transform="translate(1097,351)"/>
<path d="M0 0 C2 1 2 1 2 1 Z " fill="#FFFFFF" transform="translate(1113,338)"/>
<path d="M0 0 C2 1 2 1 2 1 Z " fill="#FFFFFF" transform="translate(1125,328)"/>
<path d="" fill="#FFFFFF" transform="translate(0,0)"/>
<path d="" fill="#FFFFFF" transform="translate(0,0)"/>
<path d="" fill="#FFFFFF" transform="translate(0,0)"/>
<path d="" fill="#FFFFFF" transform="translate(0,0)"/>
<path d="" fill="#FFFFFF" transform="translate(0,0)"/>
<path d="" fill="#FFFFFF" transform="translate(0,0)"/>
<path d="" fill="#FFFFFF" transform="translate(0,0)"/>
</svg>
