<?xml version="1.0" standalone="no"?>
<!DOCTYPE svg PUBLIC "-//W3C//DTD SVG 20010904//EN"
 "http://www.w3.org/TR/2001/REC-SVG-20010904/DTD/svg10.dtd">
<svg version="1.0" xmlns="http://www.w3.org/2000/svg"
 width="660.000000pt" height="280.000000pt" viewBox="0 0 660.000000 280.000000"
 preserveAspectRatio="xMidYMid meet">

<g transform="translate(0.000000,280.000000) scale(0.100000,-0.100000)"
fill="#000000" stroke="none">
<path d="M2372 2591 c-9 -5 103 -179 384 -595 307 -457 394 -592 387 -606 -4
-9 -181 -275 -393 -589 -212 -315 -384 -575 -383 -579 1 -3 6 -8 11 -10 5 -1
184 258 398 577 214 319 392 579 396 578 6 -2 747 -1095 778 -1147 7 -11 12
-12 20 -3 9 8 -83 152 -384 599 l-395 587 296 441 c163 243 341 507 396 589
71 104 97 151 90 158 -11 11 -34 -23 -610 -878 l-190 -282 -388 577 c-214 317
-391 580 -394 584 -3 4 -12 4 -19 -1z"/>
<path d="M888 2430 c-182 -31 -335 -116 -479 -267 -90 -94 -146 -186 -185
-303 l-29 -85 -3 -728 -3 -727 51 0 50 0 0 684 c0 783 0 781 76 935 38 78 61
108 133 180 127 125 244 189 405 218 323 58 662 -122 806 -429 58 -124 60
-151 60 -904 l0 -684 50 0 51 0 -3 722 c-4 790 -3 766 -64 907 -75 171 -266
350 -456 429 -134 56 -316 76 -460 52z"/>
<path d="M5656 2391 c5 -5 25 -14 45 -20 43 -14 187 -108 274 -178 95 -77 312
-413 267 -413 -6 0 -29 37 -51 83 -23 46 -53 94 -67 108 l-27 24 18 -35 c10
-19 29 -52 42 -72 30 -48 75 -182 67 -201 -3 -8 2 -57 12 -108 30 -162 3 -334
-77 -495 -34 -70 -57 -98 -167 -206 -70 -68 -148 -137 -173 -152 -26 -14 -102
-48 -170 -74 l-124 -47 -155 0 c-186 1 -241 13 -390 86 -92 46 -116 64 -201
148 -53 53 -118 131 -145 173 -27 43 -55 78 -62 78 -10 0 -8 -11 9 -37 49 -83
53 -92 47 -99 -12 -11 -35 14 -58 64 -12 26 -34 63 -49 82 -34 44 -58 148 -72
301 -15 180 -20 219 -29 219 -12 0 -20 -27 -27 -92 -9 -84 -27 -75 -20 10 5
67 71 287 88 298 5 3 9 10 9 15 0 5 -11 2 -24 -6 -22 -14 -24 -14 -30 1 -6 15
-9 16 -20 3 -16 -17 -50 -257 -50 -353 0 -37 -2 -62 -4 -55 -3 8 -11 30 -19
49 -11 27 -16 31 -23 20 -18 -30 -23 -116 -7 -146 8 -16 17 -56 21 -89 17
-147 42 -233 88 -302 15 -23 32 -52 37 -65 15 -38 136 -182 198 -235 138 -120
306 -221 322 -195 6 10 28 6 92 -15 46 -15 87 -32 90 -37 23 -31 225 -29 404
4 183 34 401 147 531 275 137 135 225 277 279 445 26 83 26 89 21 275 -5 212
-14 259 -75 408 -84 205 -224 366 -407 467 -116 64 -275 125 -238 91z m613
-645 c20 -51 41 -211 40 -299 l-2 -92 -8 115 c-5 63 -15 144 -24 180 -24 98
-28 120 -21 120 4 0 11 -11 15 -24z m28 -438 c-3 -7 -5 -2 -5 12 0 14 2 19 5
13 2 -7 2 -19 0 -25z"/>
<path d="M5138 2090 c-80 -14 -160 -40 -244 -80 -62 -30 -95 -54 -145 -107
-162 -172 -202 -272 -202 -498 0 -116 1 -122 31 -175 17 -30 36 -77 42 -105
17 -75 49 -122 154 -223 80 -76 113 -99 198 -141 134 -66 233 -86 378 -78 155
9 222 28 310 89 114 78 176 134 224 201 99 140 138 254 137 401 0 110 -18 243
-34 253 -7 4 -8 0 -4 -12 4 -9 10 -70 14 -135 5 -102 3 -126 -15 -187 -25 -82
-64 -170 -87 -198 -16 -20 -16 -20 -6 2 20 40 11 37 -21 -8 -61 -85 -178 -188
-258 -226 -122 -58 -147 -65 -255 -64 -240 1 -436 100 -554 280 -78 119 -106
211 -106 351 0 98 2 109 32 168 32 63 32 64 8 48 -21 -14 -25 -14 -25 -2 0 26
50 55 127 72 63 14 82 15 110 5 23 -9 38 -9 46 -2 9 7 25 4 52 -9 51 -23 85
-53 124 -109 44 -63 38 -36 -7 35 -60 92 -118 135 -212 155 -72 15 -51 31 50
37 44 2 80 9 80 15 0 6 20 8 50 5 41 -4 61 -14 110 -52 33 -26 65 -44 70 -41
6 4 18 -11 27 -34 9 -23 22 -41 30 -41 21 0 16 22 -17 74 -21 33 -28 54 -24
71 5 20 -1 28 -35 50 -23 14 -58 33 -79 43 -20 9 -41 23 -45 30 -4 6 -20 13
-35 13 -21 1 -18 3 13 10 81 16 123 10 241 -37 64 -25 118 -43 120 -41 3 3 -7
14 -22 26 -15 12 -24 24 -20 28 4 4 40 -26 80 -66 46 -46 78 -71 86 -66 14 9
-42 69 -113 122 -35 26 -45 38 -37 47 18 23 -13 45 -105 72 -163 48 -158 47
-237 34z"/>
<path d="M5167 1380 c-3 -13 -17 -23 -39 -27 -31 -7 -29 -8 32 -20 36 -6 83
-12 105 -13 22 0 63 -7 90 -15 28 -9 66 -17 85 -19 19 -2 44 -7 55 -11 11 -4
-1 13 -28 38 -53 51 -102 66 -210 68 -44 0 -56 3 -42 9 17 7 15 9 -11 9 -24 1
-33 -4 -37 -19z"/>
<path d="M5360 1383 c30 -8 73 -28 94 -46 22 -17 36 -25 32 -19 -4 8 1 15 16
21 21 8 20 9 -17 20 -22 6 -62 17 -90 26 -27 8 -59 14 -70 14 -11 0 5 -7 35
-16z"/>
<path d="M4740 1349 c0 -26 142 -156 215 -198 42 -24 78 -41 81 -38 3 2 -19
18 -48 35 -29 17 -64 40 -77 50 l-24 19 54 -8 c75 -12 312 -38 444 -49 61 -5
136 -13 168 -16 48 -6 57 -4 57 9 0 18 -66 51 -145 73 -122 34 -646 134 -704
134 -11 0 -21 -5 -21 -11z"/>
<path d="M5068 1353 c7 -3 16 -2 19 1 4 3 -2 6 -13 5 -11 0 -14 -3 -6 -6z"/>
<path d="M5530 1230 c8 -5 22 -9 30 -9 10 0 8 3 -5 9 -27 12 -43 12 -25 0z"/>
<path d="M5620 1161 c0 -6 4 -13 10 -16 6 -3 7 1 4 9 -7 18 -14 21 -14 7z"/>
<path d="M5260 1123 c-86 -11 -34 -18 143 -19 161 -1 204 -4 267 -21 41 -12
76 -20 78 -18 2 2 -32 15 -75 30 -70 25 -94 28 -228 30 -82 2 -166 1 -185 -2z"/>
<path d="M5125 1081 c-143 -5 -153 -7 -95 -14 36 -4 180 -7 320 -5 212 2 264
-1 310 -14 80 -24 74 -13 -7 13 -77 25 -238 31 -528 20z"/>
</g>
</svg>
